<svg xmlns="http://www.w3.org/2000/svg" width="82.461" height="76.779" viewBox="0 0 82.461 76.779"><g id="Grupo_34" data-name="Grupo 34" transform="translate(-883.77 -1350.064)"><g id="Grupo_14" data-name="Grupo 14" transform="translate(892.002 1344.638)"><g id="Grupo_11" data-name="Grupo 11" transform="translate(-8.233 5.426)"><path id="Caminho_5" data-name="Caminho 5" d="M117.8,116.734c4.251,5.328,6.122,12.313,7.18,19.088a115.572,115.572,0,0,1,1.112,20.764c-.017,7.579-.221,16.3-4.636,20.789-4.441,4.59-13.091,4.945-20.543,4.853-7.526-.22-13.827-.988-20.79-1.711-6.936-.825-14.534-1.6-20.733-5.271-6.225-3.565-11.179-9.943-13.707-17.315a33.512,33.512,0,0,1-.052-22.763c2.81-7.071,8.507-12.743,14.448-17.268A61.549,61.549,0,0,1,79.17,107.794c6.835-2.126,14.118-3.054,21.023-1.7A30.459,30.459,0,0,1,117.8,116.734" transform="translate(-43.667 -105.461)" fill="#dde5ed"></path></g></g><g id="_x31_9_Monitor" transform="translate(884.04 1340.594)"><g id="Grupo_16" data-name="Grupo 16" transform="translate(6.03 20.406)"><path id="Caminho_32" data-name="Caminho 32" d="M69.961,20.406h-58A5.932,5.932,0,0,0,6.03,26.335V64.443a5.932,5.932,0,0,0,5.929,5.929h58a5.932,5.932,0,0,0,5.929-5.929V26.335a5.932,5.932,0,0,0-5.929-5.929ZM56.648,65.689H54.064a.9.9,0,1,1,0-1.81h2.584a.9.9,0,1,1,0,1.81Zm5.994,0H60.058a.9.9,0,1,1,0-1.81h2.584a.9.9,0,1,1,0,1.81Zm5.994,0H66.052a.9.9,0,1,1,0-1.81h2.584a.9.9,0,0,1,0,1.81Zm5.444-6.494H7.84V26.335a4.121,4.121,0,0,1,4.119-4.119h58a4.121,4.121,0,0,1,4.119,4.119Z" transform="translate(-6.03 -20.406)" fill="#1e22aa"></path><path id="Caminho_33" data-name="Caminho 33" d="M174.961,401.221a3.819,3.819,0,0,1-3.815,3.808h-23.8a3.812,3.812,0,1,1,0-7.623h2.1l2.092-5.835a.907.907,0,0,1,1.708.608l-1.875,5.227H167.12l-1.875-5.227a.907.907,0,0,1,1.708-.608l2.092,5.835h2.1A3.82,3.82,0,0,1,174.961,401.221Z" transform="translate(-124.313 -339.186)" fill="#1e22aa"></path><path id="Caminho_34" data-name="Caminho 34" d="M83.4,74.882a8.76,8.76,0,0,0-11.793-.521A8.725,8.725,0,0,0,58.057,84.648c0,.014.007.022.015.036,1.144,2.519,1.962,2.5,12.828,13.632a.934.934,0,0,0,.644.261h.065a.24.24,0,0,1,.072,0,.934.934,0,0,0,.644-.261c10.106-10.461,11.959-11.105,13.1-14.3.007-.014.007-.029.015-.043A8.764,8.764,0,0,0,83.4,74.882ZM71.609,96.463C60.576,85.373,61.1,86.039,60.475,85.213h4.213a.9.9,0,0,0,.847-.572l.673-1.694,1.223,4.51a.9.9,0,0,0,1.607.29l2.288-3.193H83.192C82.36,85.981,82.381,85.575,71.609,96.463ZM83.923,82.745H70.864a.9.9,0,0,0-.738.384l-1.448,2.02-1.441-5.307a.905.905,0,0,0-1.716-.094L64.073,83.4H59.5a6.921,6.921,0,0,1,11.4-7.247l.072.072a.894.894,0,0,0,.637.268,1,1,0,0,0,.644-.268l.072-.072a6.914,6.914,0,0,1,11.6,6.588Z" transform="translate(-50.123 -65.073)" fill="#1e22aa"></path><path id="Caminho_35" data-name="Caminho 35" d="M292.064,95.395h14.574a.9.9,0,0,0,0-1.81H292.064a.9.9,0,0,0,0,1.81Z" transform="translate(-251.316 -83.359)" fill="#1e22aa"></path><path id="Caminho_36" data-name="Caminho 36" d="M426.636,95.395h4a.9.9,0,0,0,0-1.81h-4a.9.9,0,1,0,0,1.81Z" transform="translate(-367.083 -83.359)" fill="#1e22aa"></path><path id="Caminho_37" data-name="Caminho 37" d="M292.064,146.61h14.574a.9.9,0,0,0,0-1.81H292.064a.9.9,0,1,0,0,1.81Z" transform="translate(-251.316 -127.417)" fill="#1e22aa"></path><path id="Caminho_38" data-name="Caminho 38" d="M426.636,146.61h4a.9.9,0,0,0,0-1.81h-4a.9.9,0,1,0,0,1.81Z" transform="translate(-367.083 -127.417)" fill="#1e22aa"></path><path id="Caminho_39" data-name="Caminho 39" d="M292.064,197.821h14.574a.9.9,0,0,0,0-1.81H292.064a.9.9,0,1,0,0,1.81Z" transform="translate(-251.316 -171.472)" fill="#1e22aa"></path><path id="Caminho_40" data-name="Caminho 40" d="M426.636,197.821h4a.9.9,0,0,0,0-1.81h-4a.9.9,0,1,0,0,1.81Z" transform="translate(-367.083 -171.472)" fill="#1e22aa"></path><path id="Caminho_41" data-name="Caminho 41" d="M292.064,249.036h14.574a.9.9,0,1,0,0-1.81H292.064a.9.9,0,1,0,0,1.81Z" transform="translate(-251.316 -215.531)" fill="#1e22aa"></path><path id="Caminho_42" data-name="Caminho 42" d="M426.636,249.036h4a.9.9,0,0,0,0-1.81h-4a.9.9,0,1,0,0,1.81Z" transform="translate(-367.083 -215.531)" fill="#1e22aa"></path></g></g></g></svg>