<svg xmlns="http://www.w3.org/2000/svg" width="82.461" height="76.779" viewBox="0 0 82.461 76.779"><g id="Grupo_36" data-name="Grupo 36" transform="translate(-198.789 -1350.064)"><g id="Grupo_10" data-name="Grupo 10" transform="translate(207.022 1344.638)"><g id="Grupo_11" data-name="Grupo 11" transform="translate(-8.233 5.426)"><path id="Caminho_5" data-name="Caminho 5" d="M117.8,116.734c4.251,5.328,6.122,12.314,7.18,19.089a115.573,115.573,0,0,1,1.112,20.764c-.017,7.579-.221,16.3-4.636,20.789-4.441,4.59-13.091,4.945-20.543,4.853-7.526-.22-13.827-.988-20.79-1.711-6.936-.825-14.534-1.6-20.733-5.271-6.225-3.565-11.179-9.943-13.707-17.315a33.513,33.513,0,0,1-.052-22.764c2.81-7.071,8.507-12.743,14.448-17.268A61.549,61.549,0,0,1,79.17,107.794c6.835-2.126,14.118-3.054,21.023-1.7A30.459,30.459,0,0,1,117.8,116.734" transform="translate(-43.667 -105.461)" fill="#dde5ed"></path></g></g><g id="Grupo_6" data-name="Grupo 6" transform="translate(214.168 1361.157)"><path id="Caminho_8" data-name="Caminho 8" d="M11.193,48.368h0l.151-.087-.093.053Z" transform="translate(-5.666 -1.808)" fill="#1e22aa"></path><path id="Caminho_9" data-name="Caminho 9" d="M65.6,47.06a4.356,4.356,0,0,1-.5.339L36.449,63.942a6.894,6.894,0,0,1-3.386.824h0a6.843,6.843,0,0,1-3.38-.825L10.963,53.06l-.016-.011a4.162,4.162,0,0,1-.465-.313l0,1.9A1.7,1.7,0,0,0,11.5,55.973L30.222,66.854a6.392,6.392,0,0,0,5.7,0L64.576,50.31a1.71,1.71,0,0,0,1.031-1.353Z" transform="translate(-5.685 -1.84)" fill="#1e22aa"></path><path id="Caminho_10" data-name="Caminho 10" d="M11.158,49.572h0l.023-.013-.011.007.02-.011.067-.039.056-.032.094-.054h0l.013-.007.008,0h0l0,0,.012-.007-.011.006.028-.016.107-.062-.016.009.057-.033-.017.01.055-.032.093-.054.021-.012L39.84,33.012a6.385,6.385,0,0,0,2.845-4.937L42.624,6.42c0-1.588-.977-2.118-2.336-1.335L11.633,21.632a6.386,6.386,0,0,0-2.845,4.937l.061,21.655c0,1.516.921,2.132,2.3,1.35l.005,0Zm.545-.314.025-.014Zm5.674-28.166,13.57-7.836a2.34,2.34,0,0,1,2.4-.178l2.61,1.514a2.262,2.262,0,0,1,1.032,2.14l.043,11.836a6.255,6.255,0,0,1-2.879,4.987L20.58,41.387a2.372,2.372,0,0,1-2.389.185l-.005,0-2.618-1.516a2.356,2.356,0,0,1-1.027-2.14L14.5,26.077a6.279,6.279,0,0,1,2.879-4.986Z" transform="translate(-5.73 -2.955)" fill="#1e22aa"></path><path id="Caminho_11" data-name="Caminho 11" d="M15.928,38.638l1.067.617c-.009-.1-.014-.212-.016-.322L16.937,27.1h0v0s0-.008,0-.011a5.877,5.877,0,0,1,.6-2.384l-1.7-.983a4.514,4.514,0,0,0-.457,1.856l.042,11.835a1.386,1.386,0,0,0,.5,1.23Z" transform="translate(-5.556 -2.454)" fill="#1e22aa"></path><path id="Caminho_12" data-name="Caminho 12" d="M11.193,48.367l-.059.034Z" transform="translate(-5.668 -1.805)" fill="#1e22aa"></path><path id="Caminho_13" data-name="Caminho 13" d="M11.1,48.421Z" transform="translate(-5.669 -1.804)" fill="#1e22aa"></path><path id="Caminho_14" data-name="Caminho 14" d="M11.359,48.27l0,0h0Z" transform="translate(-5.662 -1.808)" fill="#1e22aa"></path><path id="Caminho_15" data-name="Caminho 15" d="M11.519,48.178l-.025.014Z" transform="translate(-5.658 -1.81)" fill="#1e22aa"></path><path id="Caminho_16" data-name="Caminho 16" d="M11.12,48.408l.014-.008-.006,0Z" transform="translate(-5.668 -1.805)" fill="#1e22aa"></path><path id="Caminho_17" data-name="Caminho 17" d="M20.486,22.889l-.065.038.011-.007.035-.02Z" transform="translate(-5.423 -2.476)" fill="#1e22aa"></path><path id="Caminho_18" data-name="Caminho 18" d="M20.53,22.864l-.034.02.022-.013.005,0Z" transform="translate(-5.421 -2.477)" fill="#1e22aa"></path><path id="Caminho_19" data-name="Caminho 19" d="M7.805,26.618a7.452,7.452,0,0,1,3.376-5.858L39.837,4.213a4.365,4.365,0,0,1,.547-.268L39,3.138A1.091,1.091,0,0,0,38.442,3a2.327,2.327,0,0,0-1.133.354L8.654,19.9a6.386,6.386,0,0,0-2.845,4.937l.061,21.655a1.7,1.7,0,0,0,.65,1.552l1.388.807a4.5,4.5,0,0,1-.039-.579Z" transform="translate(-5.808 -3)" fill="#1e22aa"></path><path id="Caminho_20" data-name="Caminho 20" d="M11.515,49.829c-1.412.815-1.333,1.932-.019,2.695L30.215,63.406a6.4,6.4,0,0,0,5.7,0L64.567,46.862c1.358-.784,1.383-1.895.012-2.692L45.861,33.289a6.38,6.38,0,0,0-5.663-.019C11.743,49.7,11.713,49.72,11.515,49.829ZM36.335,38.1l1.941-1.121a.733.733,0,0,1,.664,0l2,1.16a.2.2,0,0,1,0,.385l-1.941,1.121a.733.733,0,0,1-.665,0l-2-1.16a.2.2,0,0,1,0-.385Zm-.749,5.295a.2.2,0,0,1,0-.385l1.941-1.121a.732.732,0,0,1,.664,0l2,1.16a.2.2,0,0,1,0,.385l-1.941,1.121a.732.732,0,0,1-.665,0Zm.288,2.532-1.941,1.121a.733.733,0,0,1-.665,0l-2-1.16a.2.2,0,0,1,0-.385l1.942-1.121a.732.732,0,0,1,.664,0l2,1.16a.2.2,0,0,1,0,.385ZM39.9,40.9a.2.2,0,0,1,0-.385l1.941-1.121a.732.732,0,0,1,.664,0l2,1.16a.2.2,0,0,1,0,.385l-1.941,1.121a.732.732,0,0,1-.665,0Zm-7.879-.309,1.941-1.121a.732.732,0,0,1,.664,0l2,1.16a.2.2,0,0,1,0,.385L34.68,42.135a.733.733,0,0,1-.665,0l-2-1.16a.2.2,0,0,1,0-.385Zm-4.314,2.493,1.941-1.121a.733.733,0,0,1,.664,0l2,1.16a.2.2,0,0,1,0,.385l-1.942,1.121a.732.732,0,0,1-.665,0l-2-1.16a.2.2,0,0,1,0-.385Zm-4.314,2.493,1.941-1.121a.732.732,0,0,1,.664,0l2,1.16a.2.2,0,0,1,0,.385l-1.941,1.121a.733.733,0,0,1-.665,0l-2-1.16a.2.2,0,0,1,0-.385Zm-4.314,2.493,1.941-1.121a.732.732,0,0,1,.664,0l2,1.16a.2.2,0,0,1,0,.385l-1.941,1.121a.732.732,0,0,1-.665,0l-2-1.16A.2.2,0,0,1,19.079,48.069Zm-2.32,4.038-2-1.16a.2.2,0,0,1,0-.385l1.941-1.121a.732.732,0,0,1,.664,0l2,1.16a.2.2,0,0,1,0,.385l-1.941,1.121a.732.732,0,0,1-.665,0Zm6.174,1.3-1.942,1.121a.732.732,0,0,1-.665,0l-2-1.16a.2.2,0,0,1,0-.385l1.941-1.121a.733.733,0,0,1,.664,0l2,1.16a.2.2,0,0,1,0,.385Zm4.314-2.493L25.305,52.03a.732.732,0,0,1-.665,0l-2-1.16a.2.2,0,0,1,0-.385l1.941-1.121a.732.732,0,0,1,.664,0l2,1.16a.2.2,0,0,1,0,.385Zm4.314-2.493-1.941,1.121a.733.733,0,0,1-.665,0l-2-1.16a.2.2,0,0,1,0-.385L28.9,46.871a.733.733,0,0,1,.664,0l2,1.16a.2.2,0,0,1,0,.385Zm18.678,2.77-9.463,5.465a2.269,2.269,0,0,1-2.06,0l-6.184-3.594a.631.631,0,0,1,.007-1.193L42,46.4a2.269,2.269,0,0,1,2.058,0l6.183,3.594A.63.63,0,0,1,50.238,51.186ZM46.158,36.9a.732.732,0,0,1,.664,0l2,1.16a.2.2,0,0,1,0,.385l-1.941,1.121a.733.733,0,0,1-.665,0l-2-1.16a.2.2,0,0,1,0-.385Zm-5.509-1.3,1.941-1.121a.732.732,0,0,1,.664,0l2,1.16a.2.2,0,0,1,0,.385L43.308,37.15a.733.733,0,0,1-.665,0l-2-1.16a.2.2,0,0,1,0-.385Z" transform="translate(-5.685 -2.22)" fill="#1e22aa"></path><path id="Caminho_21" data-name="Caminho 21" d="M20.591,23.071l-.005,0-.053.03-.035.02-.05.029-.036.021-.133.077a5.282,5.282,0,0,0-2.349,4.068l.044,11.834c0,1.2.709,1.694,1.836,1.042l13.571-7.834A5.259,5.259,0,0,0,35.729,28.3L35.686,16.46c0-1.307-.8-1.64-1.837-1.041L20.609,23.06l-.019.011ZM31.059,30.6c-.334.193-.565.026-.566-.321L30.476,24.1a1.241,1.241,0,0,1,.562-.988c.339-.2.575-.054.576.329l.018,6.178a1.235,1.235,0,0,1-.573.979Zm-.5-9.948c.184-.32.661-.743.975-.564s.183.779,0,1.1-.661.743-.975.564-.186-.778,0-1.1Zm-6.436,4.345a1.733,1.733,0,0,1,.723-1.009l.125-.072c.3-.176.57-.145.727.17L28.907,30.9a1.069,1.069,0,0,1-.5,1.227c-.256.148-.445.081-.539-.093l-.818-1.776L22.8,32.723l-.805,2.715c-.147.449-.63.959-.944.765-.216-.139-.168-.45-.1-.7Z" transform="translate(-5.489 -2.681)" fill="#1e22aa"></path><path id="Caminho_22" data-name="Caminho 22" d="M24.773,25.35,23.1,31.005l3.374-1.952Z" transform="translate(-5.353 -2.411)" fill="#1e22aa"></path><path id="Caminho_23" data-name="Caminho 23" d="M19.789,22.372,33.361,14.54l.008,0q.156-.089.309-.16l-1.066-.618,0,0a1.37,1.37,0,0,0-1.332.183L17.706,21.774a4.444,4.444,0,0,0-1.358,1.291l1.7.983a5.965,5.965,0,0,1,1.745-1.676Z" transform="translate(-5.531 -2.72)" fill="#1e22aa"></path></g></g></svg>