<svg xmlns="http://www.w3.org/2000/svg" width="82.461" height="76.779" viewBox="0 0 82.461 76.779"><g id="Grupo_33" data-name="Grupo 33" transform="translate(-433.769 -1350.064)"><g id="Grupo_12" data-name="Grupo 12" transform="translate(442.002 1344.638)"><g id="Grupo_11" data-name="Grupo 11" transform="translate(-8.233 5.426)"><path id="Caminho_5" data-name="Caminho 5" d="M117.8,116.734c4.251,5.328,6.122,12.314,7.18,19.089a115.573,115.573,0,0,1,1.112,20.764c-.017,7.579-.221,16.3-4.636,20.789-4.441,4.59-13.091,4.945-20.543,4.853-7.526-.22-13.827-.988-20.79-1.711-6.936-.825-14.534-1.6-20.733-5.271-6.225-3.565-11.179-9.943-13.707-17.315a33.513,33.513,0,0,1-.052-22.764c2.81-7.071,8.507-12.743,14.448-17.268A61.549,61.549,0,0,1,79.17,107.794c6.835-2.126,14.118-3.054,21.023-1.7A30.459,30.459,0,0,1,117.8,116.734" transform="translate(-43.667 -105.461)" fill="#dde5ed"></path></g></g><g id="Grupo_7" data-name="Grupo 7" transform="translate(445.509 1361.157)"><path id="Caminho_24" data-name="Caminho 24" d="M57.7,56.417a14.7,14.7,0,0,1,1.068,5.248,4.747,4.747,0,1,1-2.187.018c-.091-2.027-.576-5.11-2.56-6.633A19.566,19.566,0,0,0,50.9,54.5c-.079,3.551-11.815,12.313-11.815,12.313S27.347,58.052,27.267,54.5a19.264,19.264,0,0,0-3.454.637c-1.447,1.146-2.2,3.281-2.235,6.384a2.4,2.4,0,0,1,.98,1.088,9.071,9.071,0,0,1,3.991,4.49,1.556,1.556,0,0,1,.07,1.172,14.133,14.133,0,0,1,.993,4.9c0,2.092,0,4.071-2.281,4.579a1.374,1.374,0,0,1-.881.318H22.927a1.388,1.388,0,0,1-1.386-1.385v-.054A1.394,1.394,0,0,1,22.927,75.3h1.524a1.386,1.386,0,0,1,.456.077.409.409,0,0,0,.122-.047,8.05,8.05,0,0,0,.169-2.154,11.617,11.617,0,0,0-.836-4.039,1.559,1.559,0,0,1-.636-.681c-.924-1.935-2.181-3.184-3.2-3.184-1.044,0-2.363,1.352-3.284,3.36a1.581,1.581,0,0,1-.738.754,11.307,11.307,0,0,0-.745,3.789,7.524,7.524,0,0,0,.193,2.16.773.773,0,0,0,.166.056,1.388,1.388,0,0,1,.5-.092h1.527a1.387,1.387,0,0,1,1.378,1.246l.007.085a1.4,1.4,0,0,1-1.385,1.441H16.614a1.378,1.378,0,0,1-.836-.285A2.634,2.634,0,0,1,13.9,76.608a6.486,6.486,0,0,1-.558-3.437,13.926,13.926,0,0,1,.962-4.809,1.533,1.533,0,0,1,.091-1.039,11.551,11.551,0,0,1,2.376-3.5,6.575,6.575,0,0,1,1.6-1.15,2.425,2.425,0,0,1,1.021-1.15,13.988,13.988,0,0,1,.876-5.009A19.464,19.464,0,0,0,9.593,73.887c0,9.7,7.085,10.171,16.359,10.171,1.012,0,2.049-.006,3.108-.006H49.106c1.058,0,2.094.006,3.106.006,9.276,0,16.363-.474,16.363-10.171A19.466,19.466,0,0,0,57.7,56.417Z" transform="translate(-9.593 -18.373)" fill="#1e22aa"></path><path id="Caminho_25" data-name="Caminho 25" d="M44,43.676c8.965,0,16.232-13.481,16.232-22.445a16.232,16.232,0,0,0-32.463,0c0,8.965,7.267,22.445,16.231,22.445Z" transform="translate(-14.503 -5)" fill="#1e22aa"></path><ellipse id="Elipse_5" data-name="Elipse 5" cx="2.19" cy="2.19" rx="2.19" ry="2.19" transform="translate(45.927 45.723)" fill="#1e22aa"></ellipse></g></g></svg>