<svg xmlns="http://www.w3.org/2000/svg" width="87.152" height="76.779" viewBox="0 0 87.152 76.779"><g id="Grupo_32" data-name="Grupo 32" transform="translate(-625.77 -1350.064)"><g id="Grupo_13" data-name="Grupo 13" transform="translate(634.002 1344.638)"><g id="Grupo_11" data-name="Grupo 11" transform="translate(-8.233 5.426)"><path id="Caminho_5" data-name="Caminho 5" d="M117.8,116.734c4.251,5.328,6.122,12.313,7.18,19.088a115.572,115.572,0,0,1,1.112,20.764c-.017,7.579-.221,16.3-4.636,20.789-4.441,4.59-13.091,4.945-20.543,4.853-7.526-.22-13.827-.988-20.79-1.711-6.936-.825-14.534-1.6-20.733-5.271-6.225-3.565-11.179-9.943-13.707-17.315a33.512,33.512,0,0,1-.052-22.763c2.81-7.071,8.507-12.743,14.448-17.268A61.549,61.549,0,0,1,79.17,107.794c6.835-2.126,14.118-3.054,21.023-1.7A30.459,30.459,0,0,1,117.8,116.734" transform="translate(-43.667 -105.461)" fill="#dde5ed"></path></g></g><g id="Grupo_9" data-name="Grupo 9" transform="translate(645.079 1359)"><g id="Grupo_8" data-name="Grupo 8" transform="translate(10.779 19.558)"><circle id="Elipse_6" data-name="Elipse 6" cx="1" cy="1" r="1" transform="translate(20.221 35.442)" fill="#1e22aa"></circle><path id="Caminho_29" data-name="Caminho 29" d="M35.273,47.662l-3.325-1.481v4.938a3.292,3.292,0,1,1-2.195,0V45.2l-1.1-.483V41.857a7.711,7.711,0,0,0,3.226-5.333,4.4,4.4,0,0,0,3.358-4.258V28.974a10.974,10.974,0,1,0-21.948,0v3.292a4.4,4.4,0,0,0,3.358,4.258,7.711,7.711,0,0,0,3.226,5.333v2.864l-1.1.483v5.915a3.3,3.3,0,0,1,2.195,3.095v2.195a1.1,1.1,0,0,1-2.195,0V54.214a1.1,1.1,0,1,0-2.195,0v2.195a1.1,1.1,0,0,1-2.195,0V54.214a3.3,3.3,0,0,1,2.195-3.095V46.181l-3.325,1.481A5.5,5.5,0,0,0,10,52.677V59.7H38.532V52.677A5.5,5.5,0,0,0,35.273,47.662Zm-16.494-12.1v-4.39h4.39a1.133,1.133,0,0,0,.779-.318l1.416-1.427,1.416,1.427a1.133,1.133,0,0,0,.779.318h2.195v4.39a5.487,5.487,0,0,1-10.974,0Zm7.682,9.284-2.195,1.47-2.195-1.47v-1.92a7.727,7.727,0,0,0,4.39,0Z" transform="translate(-10 -18)" fill="#1e22aa"></path></g><path id="Caminho_30" data-name="Caminho 30" d="M48.09,12.974V9.682A7.69,7.69,0,0,0,40.408,2H9.682A7.69,7.69,0,0,0,2,9.682V60.161a7.69,7.69,0,0,0,7.682,7.682H40.408a7.69,7.69,0,0,0,7.682-7.682V39.311H43.7V59.064a4.388,4.388,0,0,1-4.39,4.39H10.779a4.388,4.388,0,0,1-4.39-4.39V10.779a4.388,4.388,0,0,1,4.39-4.39h7.682a1.133,1.133,0,0,1,.779.318l1.866,1.877h7.879L30.85,6.708a1.133,1.133,0,0,1,.779-.318h7.682a4.388,4.388,0,0,1,4.39,4.39v2.195Z" fill="#1e22aa"></path><path id="Caminho_31" data-name="Caminho 31" d="M61.24,14H39.292A3.3,3.3,0,0,0,36,17.292V32.655a3.3,3.3,0,0,0,3.292,3.292h7.133L49.388,39.9a1.1,1.1,0,0,0,1.756,0l2.963-3.951H61.24a3.3,3.3,0,0,0,3.292-3.292V17.292A3.3,3.3,0,0,0,61.24,14ZM56.85,29.363H43.682a1.1,1.1,0,0,1,0-2.195H56.85a1.1,1.1,0,0,1,0,2.195Zm0-6.584H43.682a1.1,1.1,0,0,1,0-2.195H56.85a1.1,1.1,0,0,1,0,2.195Z" transform="translate(3.311 1.169)" fill="#1e22aa"></path></g></g></svg>