<svg xmlns="http://www.w3.org/2000/svg" width="82.461" height="76.779" viewBox="0 0 82.461 76.779"><g id="Grupo_1183" data-name="Grupo 1183" transform="translate(-1153 -1357)"><g id="Grupo_15" data-name="Grupo 15" transform="translate(1161.233 1351.574)"><g id="Grupo_11" data-name="Grupo 11" transform="translate(-8.233 5.426)"><path id="Caminho_5" data-name="Caminho 5" d="M117.8,116.734c4.251,5.328,6.122,12.313,7.18,19.088a115.572,115.572,0,0,1,1.112,20.764c-.017,7.579-.221,16.3-4.636,20.789-4.441,4.59-13.091,4.945-20.543,4.853-7.526-.22-13.827-.988-20.79-1.711-6.936-.825-14.534-1.6-20.733-5.271-6.225-3.565-11.179-9.943-13.707-17.315a33.512,33.512,0,0,1-.052-22.763c2.81-7.071,8.507-12.743,14.448-17.268A61.549,61.549,0,0,1,79.17,107.794c6.835-2.126,14.118-3.054,21.023-1.7A30.459,30.459,0,0,1,117.8,116.734" transform="translate(-43.667 -105.461)" fill="#dde5ed"></path></g></g><g id="wait-time" transform="translate(1164.616 1366)"><path id="Caminho_145" data-name="Caminho 145" d="M40.978,40.2a21.959,21.959,0,0,0-8.262-9.594l-1.886-1.2,1.886-1.2A21.97,21.97,0,0,0,42.89,9.674h2.193a2.192,2.192,0,0,0,2.193-2.193V4.193A2.192,2.192,0,0,0,45.082,2H12.193A2.192,2.192,0,0,0,10,4.193V7.482a2.192,2.192,0,0,0,2.193,2.193h2.193A21.97,21.97,0,0,0,24.559,28.209l1.886,1.2-1.886,1.2A21.97,21.97,0,0,0,14.385,49.142H12.193A2.192,2.192,0,0,0,10,51.334v3.289a2.192,2.192,0,0,0,2.193,2.193H31.005A15.167,15.167,0,0,1,40.978,40.2ZM17.606,15.985a19.824,19.824,0,0,1-1.028-6.31H40.7a19.7,19.7,0,0,1-3.775,11.637C31.142,19.7,24.216,12.487,17.606,15.985Z" fill="#1e22aa"></path><path id="Caminho_146" data-name="Caminho 146" d="M44.156,38A13.156,13.156,0,1,0,57.312,51.156,13.156,13.156,0,0,0,44.156,38Zm0,21.926-6.578-6.578h3.289V43.482h6.578v9.867h3.289Z" transform="translate(2.023 3.467)" fill="#1e22aa"></path></g></g></svg>